<?xml version="1.0" standalone="no"?>
<!DOCTYPE svg PUBLIC "-//W3C//DTD SVG 20010904//EN"
 "http://www.w3.org/TR/2001/REC-SVG-20010904/DTD/svg10.dtd">
<svg version="1.0" xmlns="http://www.w3.org/2000/svg"
 width="999.000000pt" height="499.000000pt" viewBox="0 0 999.000000 499.000000"
 preserveAspectRatio="xMidYMid meet">

<g transform="translate(0.000000,499.000000) scale(0.100000,-0.100000)"
fill="#000000" stroke="none">
<path d="M8270 3320 c-206 -137 -376 -256 -378 -264 -2 -8 135 -103 370 -256
205 -134 380 -244 388 -246 20 -5 754 479 758 499 2 11 -112 93 -365 262 -202
136 -375 249 -383 251 -8 2 -184 -108 -390 -246z m730 -37 l340 -227 -342
-226 -343 -226 -347 226 -347 225 342 227 c188 125 346 227 350 228 4 0 161
-102 347 -227z"/>
<path d="M8230 3050 l0 -142 98 4 c106 4 137 16 169 64 10 16 17 46 17 74 0
28 -7 58 -17 74 -32 48 -63 60 -169 64 l-98 4 0 -142z m169 65 c51 -26 51
-104 0 -130 -15 -8 -42 -15 -59 -15 l-30 0 0 80 0 80 30 0 c17 0 44 -7 59 -15z"/>
<path d="M8560 3050 l0 -140 110 0 110 0 0 30 0 30 -70 0 c-68 0 -70 1 -70 25
0 24 3 25 60 25 l60 0 0 30 0 30 -60 0 c-57 0 -60 1 -60 25 0 24 2 25 70 25
l70 0 0 30 0 30 -110 0 -110 0 0 -140z"/>
<path d="M8804 3173 c4 -10 30 -73 59 -141 l52 -123 39 3 39 3 51 120 c29 66
55 128 59 138 5 14 0 17 -31 17 l-38 0 -38 -90 c-21 -50 -40 -90 -41 -88 -2 2
-19 41 -38 88 l-35 85 -42 3 c-38 3 -42 1 -36 -15z"/>
<path d="M2244 2890 c-160 -23 -248 -105 -247 -231 1 -121 65 -173 254 -204
121 -21 157 -32 169 -56 13 -23 -1 -53 -30 -69 -10 -5 -56 -10 -102 -10 -77 0
-132 13 -229 54 -12 5 -23 -9 -47 -64 -18 -38 -32 -72 -32 -74 0 -9 109 -49
169 -62 181 -38 357 2 435 99 29 36 31 45 31 115 0 64 -4 82 -23 109 -33 46
-111 79 -240 102 -121 21 -162 39 -162 71 0 71 155 92 290 41 l51 -19 35 70
c28 56 33 73 22 79 -24 16 -112 40 -183 49 -79 11 -89 11 -161 0z"/>
<path d="M4633 2890 c-48 -10 -114 -42 -132 -64 -22 -26 -31 -18 -31 24 l0 40
-95 0 -95 0 0 -360 0 -360 99 0 99 0 4 218 c3 196 5 220 23 252 42 73 151 99
214 52 51 -38 56 -60 59 -299 l4 -223 98 0 98 0 4 218 c4 250 9 269 88 310 71
37 145 19 187 -45 16 -23 18 -58 21 -255 l4 -228 99 0 99 0 0 250 c0 287 -8
326 -81 399 -101 100 -308 101 -422 1 l-45 -40 -16 25 c-22 33 -91 71 -154 84
-59 12 -69 12 -129 1z"/>
<path d="M5874 2890 c-160 -23 -248 -105 -247 -231 1 -121 65 -173 254 -204
121 -21 157 -32 169 -56 13 -23 -1 -53 -30 -69 -10 -5 -56 -10 -102 -10 -77 0
-132 13 -229 54 -12 5 -23 -9 -47 -64 -18 -38 -32 -72 -32 -74 0 -9 109 -49
169 -62 181 -38 357 2 435 99 29 36 31 45 31 115 0 64 -4 82 -23 109 -33 46
-111 79 -240 102 -121 21 -162 39 -162 71 0 71 155 92 290 41 l51 -19 35 70
c28 56 33 73 22 79 -24 16 -112 40 -183 49 -79 11 -89 11 -161 0z"/>
<path d="M6648 2890 c-69 -12 -150 -52 -200 -99 -148 -136 -153 -374 -11 -517
155 -154 429 -152 582 5 133 137 131 369 -5 505 -86 85 -237 129 -366 106z
m172 -191 c58 -35 88 -92 89 -169 1 -125 -81 -207 -195 -198 -96 8 -156 68
-170 170 -22 162 139 277 276 197z"/>
<path d="M7645 2894 c-81 -19 -113 -32 -151 -61 l-44 -33 0 45 0 45 -95 0 -95
0 0 -360 0 -360 100 0 100 0 0 193 c0 105 5 209 11 230 40 146 247 169 298 34
7 -17 11 -115 11 -243 l0 -214 106 0 106 0 -4 253 -3 252 -33 67 c-35 71 -76
110 -141 133 -44 15 -136 26 -166 19z"/>
<path d="M2720 2810 l0 -80 175 -2 176 -3 -181 -214 -180 -213 0 -64 0 -64
315 0 315 0 0 80 0 80 -184 2 -184 3 179 210 178 210 1 68 0 67 -305 0 -305 0
0 -80z"/>
<path d="M3370 2887 c0 -2 70 -165 156 -363 l155 -359 -17 -33 c-33 -62 -110
-80 -184 -42 l-40 20 -35 -70 c-19 -38 -35 -72 -35 -75 0 -14 112 -56 167 -61
113 -12 226 41 279 131 27 47 364 830 364 847 0 5 -43 7 -97 6 l-96 -3 -98
-235 c-54 -129 -101 -234 -106 -233 -4 2 -51 107 -104 235 l-96 233 -106 3
c-59 1 -107 1 -107 -1z"/>
</g>
</svg>
